<svg xmlns="http://www.w3.org/2000/svg" width="16" height="15.144" viewBox="0 0 16 15.144">
  <g id="contact_3_" data-name="contact(3)" transform="translate(0 -13.7)">
    <g id="Group_7" data-name="Group 7" transform="translate(0 13.7)">
      <g id="Group_6" data-name="Group 6" transform="translate(0 0)">
        <path id="Path_3" data-name="Path 3" d="M12.187,114.526l-2.7-1.8a.278.278,0,0,0-.372.06l-.785,1.01a.842.842,0,0,1-1.079.222l-.145-.08A9.487,9.487,0,0,1,4.638,112,9.475,9.475,0,0,1,2.7,109.533l-.08-.145a.842.842,0,0,1,.222-1.079l1.009-.786a.278.278,0,0,0,.06-.372l-1.8-2.7a.276.276,0,0,0-.372-.084l-1.129.677a1.086,1.086,0,0,0-.5.64c-.371,1.35-.059,3.713,3.531,7.3s5.953,3.9,7.3,3.531a1.086,1.086,0,0,0,.64-.5l.676-1.129A.276.276,0,0,0,12.187,114.526Z" transform="translate(0 -101.499)" fill="#fff500"/>
        <path id="Path_4" data-name="Path 4" d="M111.7,13.745a.155.155,0,0,0-.112-.046H99.611a.155.155,0,0,0-.157.157v4.16l.679,1.019a.851.851,0,0,1-.185,1.14l-1.009.786a.273.273,0,0,0-.074.349l.082.15a7.206,7.206,0,0,0,.954,1.39h11.684a.156.156,0,0,0,.157-.154v-8.84A.155.155,0,0,0,111.7,13.745Zm-8.119,5.2h0l-2.928,3.136a.286.286,0,0,1-.418-.39l2.928-3.135a.286.286,0,1,1,.418.39Zm2.021-.225a.947.947,0,0,1-.572-.189l-4.776-3.622a.286.286,0,1,1,.347-.456l4.775,3.622a.386.386,0,0,0,.453,0l4.776-3.622a.286.286,0,1,1,.346.456l-4.777,3.622A.947.947,0,0,1,105.6,18.717Zm5.37,3.374a.286.286,0,0,1-.4-.014l-2.927-3.136a.286.286,0,0,1,.419-.388l2.927,3.135A.286.286,0,0,1,110.968,22.092Z" transform="translate(-95.742 -13.7)" fill="#fff500"/>
      </g>
    </g>
  </g>
</svg>
