<svg xmlns="http://www.w3.org/2000/svg" width="24" height="24" viewBox="0 0 24 24">
  <g id="Group_16" data-name="Group 16" transform="translate(-1156 -5765)">
    <g id="Path_16" data-name="Path 16" transform="translate(1156 5765)" fill="#fff">
      <path d="M 20 23.5 L 4 23.5 C 2.070090055465698 23.5 0.5 21.92991065979004 0.5 20 L 0.5 4 C 0.5 2.070090055465698 2.070090055465698 0.5 4 0.5 L 20 0.5 C 21.92991065979004 0.5 23.5 2.070090055465698 23.5 4 L 23.5 20 C 23.5 21.92991065979004 21.92991065979004 23.5 20 23.5 Z" stroke="none"/>
      <path d="M 4 1 C 2.345790863037109 1 1 2.345790863037109 1 4 L 1 20 C 1 21.65420913696289 2.345790863037109 23 4 23 L 20 23 C 21.65420913696289 23 23 21.65420913696289 23 20 L 23 4 C 23 2.345790863037109 21.65420913696289 1 20 1 L 4 1 M 4 0 L 20 0 C 22.20914077758789 0 24 1.790859222412109 24 4 L 24 20 C 24 22.20914077758789 22.20914077758789 24 20 24 L 4 24 C 1.790859222412109 24 0 22.20914077758789 0 20 L 0 4 C 0 1.790859222412109 1.790859222412109 0 4 0 Z" stroke="none" fill="#fff"/>
    </g>
    <path id="linkedin" d="M20.484,0H3.516A3.52,3.52,0,0,0,0,3.516V20.484A3.52,3.52,0,0,0,3.516,24H20.484A3.52,3.52,0,0,0,24,20.484V3.516A3.52,3.52,0,0,0,20.484,0Zm-12,19.031H5.672V9.187H8.484Zm0-11.25H5.672V4.969H8.484Zm9.844,11.25H15.516V13.406a1.406,1.406,0,0,0-2.812,0v5.625H9.891V9.187H12.7v.53a6.1,6.1,0,0,1,2.109-.53,3.681,3.681,0,0,1,3.516,3.735Zm0,0" transform="translate(1156 5765)" fill="#007cff"/>
  </g>
</svg>
