<svg xmlns="http://www.w3.org/2000/svg" xmlns:xlink="http://www.w3.org/1999/xlink" width="534.091" height="167.171" viewBox="0 0 534.091 167.171">
  <defs>
    <linearGradient id="linear-gradient" x1="0.5" x2="0.5" y2="1" gradientUnits="objectBoundingBox">
      <stop offset="0" stop-color="#f3983e"/>
      <stop offset="1" stop-color="#7a4c1f"/>
    </linearGradient>
    <radialGradient id="radial-gradient" cx="0.5" cy="0.5" r="0.5" gradientUnits="objectBoundingBox">
      <stop offset="0" stop-color="#fff"/>
      <stop offset="1" stop-color="#f3983e"/>
    </radialGradient>
  </defs>
  <g id="Group_204" data-name="Group 204" transform="translate(-7030 -3220)">
    <g id="Group_201" data-name="Group 201" transform="translate(6990 307)">
      <path id="Subtraction_9" data-name="Subtraction 9" d="M370.494,89.476h0L-.968,89.231,47.27,1.532,414.649.015l-44.155,89.46ZM404.834,3.818,53.7,3.85,13.72,84.349H362.61L404.834,3.818Z" transform="translate(159.442 2952.064)" fill="url(#linear-gradient)"/>
      <path id="Path_62" data-name="Path 62" d="M-30.078,0H47.487L8.294,69.7H-68.68Z" transform="translate(108.68 3003.169)" fill="url(#radial-gradient)"/>
      <path id="Path_63" data-name="Path 63" d="M-30.078,0H47.487L8.294,69.7H-68.68Z" transform="translate(252.257 2925.604)" fill="url(#radial-gradient)"/>
    </g>
    <g id="Group_203" data-name="Group 203">
      <path id="Subtraction_10" data-name="Subtraction 10" d="M-4139.414-1694.829a84.2,84.2,0,0,1-16.845-1.7,83.187,83.187,0,0,1-15.69-4.87,83.578,83.578,0,0,1-14.2-7.707,84.2,84.2,0,0,1-12.371-10.207,84.2,84.2,0,0,1-10.207-12.37,83.651,83.651,0,0,1-7.707-14.2,83.209,83.209,0,0,1-4.87-15.69,84.185,84.185,0,0,1-1.7-16.845,84.189,84.189,0,0,1,1.7-16.845,83.21,83.21,0,0,1,4.87-15.69,83.674,83.674,0,0,1,7.707-14.2,84.223,84.223,0,0,1,10.207-12.37,84.2,84.2,0,0,1,12.371-10.207,83.582,83.582,0,0,1,14.2-7.707,83.187,83.187,0,0,1,15.69-4.87,84.2,84.2,0,0,1,16.845-1.7,84.2,84.2,0,0,1,16.845,1.7,83.158,83.158,0,0,1,15.69,4.87,83.612,83.612,0,0,1,14.2,7.707,84.192,84.192,0,0,1,12.37,10.207,84.2,84.2,0,0,1,10.207,12.37,83.594,83.594,0,0,1,7.707,14.2,83.164,83.164,0,0,1,4.87,15.69,84.189,84.189,0,0,1,1.7,16.845,84.185,84.185,0,0,1-1.7,16.845,83.181,83.181,0,0,1-4.87,15.69,83.572,83.572,0,0,1-7.707,14.2,84.191,84.191,0,0,1-10.207,12.37,84.2,84.2,0,0,1-12.37,10.207,83.61,83.61,0,0,1-14.2,7.707,83.158,83.158,0,0,1-15.69,4.87A84.2,84.2,0,0,1-4139.414-1694.829Zm0-161.171a78.161,78.161,0,0,0-15.636,1.576,77.192,77.192,0,0,0-14.563,4.521,77.56,77.56,0,0,0-13.179,7.153,78.176,78.176,0,0,0-11.483,9.474,78.137,78.137,0,0,0-9.474,11.483,77.585,77.585,0,0,0-7.154,13.179,77.191,77.191,0,0,0-4.521,14.564,78.159,78.159,0,0,0-1.576,15.636,78.159,78.159,0,0,0,1.576,15.636,77.194,77.194,0,0,0,4.521,14.564,77.592,77.592,0,0,0,7.154,13.179,78.124,78.124,0,0,0,9.474,11.482,78.143,78.143,0,0,0,11.483,9.474,77.563,77.563,0,0,0,13.179,7.153,77.179,77.179,0,0,0,14.563,4.521,78.161,78.161,0,0,0,15.636,1.576,78.161,78.161,0,0,0,15.636-1.576,77.187,77.187,0,0,0,14.563-4.521,77.563,77.563,0,0,0,13.179-7.153,78.141,78.141,0,0,0,11.482-9.474,78.142,78.142,0,0,0,9.474-11.482,77.571,77.571,0,0,0,7.153-13.179,77.194,77.194,0,0,0,4.521-14.564,78.159,78.159,0,0,0,1.576-15.636,78.16,78.16,0,0,0-1.576-15.636,77.209,77.209,0,0,0-4.521-14.564,77.581,77.581,0,0,0-7.153-13.179,78.134,78.134,0,0,0-9.474-11.483,78.129,78.129,0,0,0-11.482-9.474,77.573,77.573,0,0,0-13.179-7.153,77.2,77.2,0,0,0-14.563-4.521A78.161,78.161,0,0,0-4139.414-1856Z" transform="translate(11292 5082)" fill="url(#linear-gradient)"/>
      <circle id="Ellipse_17" data-name="Ellipse 17" cx="75" cy="75" r="75" transform="translate(7078 3229)" fill="#fff"/>
    </g>
  </g>
</svg>
